<mxfile host="app.diagrams.net" agent="Mozilla/5.0 (Windows NT 10.0; Win64; x64) AppleWebKit/537.36 (KHTML, like Gecko) Chrome/139.0.0.0 Safari/537.36" version="28.0.7">
  <diagram name="Page-1" id="gamRS6MLA4fs2B-uqD5Q">
    <mxGraphModel grid="1" page="1" gridSize="10" guides="1" tooltips="1" connect="1" arrows="1" fold="1" pageScale="1" pageWidth="850" pageHeight="1100" math="0" shadow="0">
      <root>
        <mxCell id="0" />
        <mxCell id="1" parent="0" />
        <mxCell id="qD9gXsYjsShy9WRek7qx-5" style="edgeStyle=orthogonalEdgeStyle;rounded=0;orthogonalLoop=1;jettySize=auto;html=1;exitX=0.5;exitY=1;exitDx=0;exitDy=0;entryX=0.5;entryY=0;entryDx=0;entryDy=0;" edge="1" parent="1" source="sVo8eWBov2D_V9g_eI1e-1" target="qD9gXsYjsShy9WRek7qx-1">
          <mxGeometry relative="1" as="geometry" />
        </mxCell>
        <mxCell id="sVo8eWBov2D_V9g_eI1e-1" value="Inicio" style="rounded=1;whiteSpace=wrap;html=1;" vertex="1" parent="1">
          <mxGeometry x="150" y="119" width="80" height="30" as="geometry" />
        </mxCell>
        <mxCell id="sVo8eWBov2D_V9g_eI1e-14" value="&lt;font style=&quot;font-size: 20px;&quot;&gt;&lt;b&gt;Ver si un año es bisiesto&lt;/b&gt;&lt;/font&gt;" style="text;html=1;align=center;verticalAlign=middle;whiteSpace=wrap;rounded=0;" vertex="1" parent="1">
          <mxGeometry x="230" y="40" width="525" height="30" as="geometry" />
        </mxCell>
        <mxCell id="IqsItVoHAmX1cxbS_e39-7" style="edgeStyle=orthogonalEdgeStyle;rounded=0;orthogonalLoop=1;jettySize=auto;html=1;exitX=0.5;exitY=1;exitDx=0;exitDy=0;entryX=0.5;entryY=0;entryDx=0;entryDy=0;" edge="1" parent="1" source="qD9gXsYjsShy9WRek7qx-1" target="IqsItVoHAmX1cxbS_e39-6">
          <mxGeometry relative="1" as="geometry" />
        </mxCell>
        <mxCell id="qD9gXsYjsShy9WRek7qx-1" value="Leer año" style="rounded=0;whiteSpace=wrap;html=1;" vertex="1" parent="1">
          <mxGeometry x="149" y="176" width="80" height="40" as="geometry" />
        </mxCell>
        <mxCell id="fhB60b2QltupWCeUgBXA-5" value="Fin" style="rounded=1;whiteSpace=wrap;html=1;" vertex="1" parent="1">
          <mxGeometry x="150" y="699" width="80" height="30" as="geometry" />
        </mxCell>
        <mxCell id="IqsItVoHAmX1cxbS_e39-4" style="edgeStyle=orthogonalEdgeStyle;rounded=0;orthogonalLoop=1;jettySize=auto;html=1;exitX=0.5;exitY=1;exitDx=0;exitDy=0;entryX=0.5;entryY=0;entryDx=0;entryDy=0;" edge="1" parent="1" source="IqsItVoHAmX1cxbS_e39-2" target="IqsItVoHAmX1cxbS_e39-3">
          <mxGeometry relative="1" as="geometry" />
        </mxCell>
        <mxCell id="IqsItVoHAmX1cxbS_e39-30" style="edgeStyle=orthogonalEdgeStyle;rounded=0;orthogonalLoop=1;jettySize=auto;html=1;exitX=0;exitY=0.5;exitDx=0;exitDy=0;entryX=0.5;entryY=0;entryDx=0;entryDy=0;" edge="1" parent="1" source="IqsItVoHAmX1cxbS_e39-2" target="fhB60b2QltupWCeUgBXA-5">
          <mxGeometry relative="1" as="geometry">
            <Array as="points">
              <mxPoint x="70" y="369" />
              <mxPoint x="70" y="670" />
              <mxPoint x="190" y="670" />
            </Array>
          </mxGeometry>
        </mxCell>
        <mxCell id="IqsItVoHAmX1cxbS_e39-2" value="¿año divisible&lt;div&gt;&amp;nbsp;por 4?&amp;nbsp;&lt;/div&gt;" style="rhombus;whiteSpace=wrap;html=1;" vertex="1" parent="1">
          <mxGeometry x="130" y="329" width="120" height="80" as="geometry" />
        </mxCell>
        <mxCell id="IqsItVoHAmX1cxbS_e39-11" style="edgeStyle=orthogonalEdgeStyle;rounded=0;orthogonalLoop=1;jettySize=auto;html=1;exitX=1;exitY=0.5;exitDx=0;exitDy=0;entryX=0;entryY=0.5;entryDx=0;entryDy=0;" edge="1" parent="1" source="IqsItVoHAmX1cxbS_e39-3" target="IqsItVoHAmX1cxbS_e39-10">
          <mxGeometry relative="1" as="geometry" />
        </mxCell>
        <mxCell id="IqsItVoHAmX1cxbS_e39-13" style="edgeStyle=orthogonalEdgeStyle;rounded=0;orthogonalLoop=1;jettySize=auto;html=1;exitX=0.5;exitY=1;exitDx=0;exitDy=0;" edge="1" parent="1" source="IqsItVoHAmX1cxbS_e39-3" target="IqsItVoHAmX1cxbS_e39-9">
          <mxGeometry relative="1" as="geometry" />
        </mxCell>
        <mxCell id="IqsItVoHAmX1cxbS_e39-3" value="¿año divisible&lt;div&gt;&amp;nbsp;por 100?&amp;nbsp;&lt;/div&gt;" style="rhombus;whiteSpace=wrap;html=1;" vertex="1" parent="1">
          <mxGeometry x="130" y="469" width="120" height="80" as="geometry" />
        </mxCell>
        <mxCell id="IqsItVoHAmX1cxbS_e39-5" value="Si" style="text;html=1;align=center;verticalAlign=middle;resizable=0;points=[];autosize=1;strokeColor=none;fillColor=none;" vertex="1" parent="1">
          <mxGeometry x="186" y="409" width="30" height="30" as="geometry" />
        </mxCell>
        <mxCell id="IqsItVoHAmX1cxbS_e39-8" style="edgeStyle=orthogonalEdgeStyle;rounded=0;orthogonalLoop=1;jettySize=auto;html=1;exitX=0.5;exitY=1;exitDx=0;exitDy=0;entryX=0.5;entryY=0;entryDx=0;entryDy=0;" edge="1" parent="1" source="IqsItVoHAmX1cxbS_e39-6" target="IqsItVoHAmX1cxbS_e39-2">
          <mxGeometry relative="1" as="geometry" />
        </mxCell>
        <mxCell id="IqsItVoHAmX1cxbS_e39-6" value="bisiesto = Falso" style="rounded=0;whiteSpace=wrap;html=1;" vertex="1" parent="1">
          <mxGeometry x="135" y="249" width="110" height="40" as="geometry" />
        </mxCell>
        <mxCell id="IqsItVoHAmX1cxbS_e39-20" style="edgeStyle=orthogonalEdgeStyle;rounded=0;orthogonalLoop=1;jettySize=auto;html=1;exitX=0.5;exitY=1;exitDx=0;exitDy=0;entryX=0.5;entryY=0;entryDx=0;entryDy=0;" edge="1" parent="1" source="IqsItVoHAmX1cxbS_e39-9" target="fhB60b2QltupWCeUgBXA-5">
          <mxGeometry relative="1" as="geometry" />
        </mxCell>
        <mxCell id="IqsItVoHAmX1cxbS_e39-9" value="bisiesto = Verdadero" style="rounded=0;whiteSpace=wrap;html=1;" vertex="1" parent="1">
          <mxGeometry x="124.5" y="599" width="129.5" height="40" as="geometry" />
        </mxCell>
        <mxCell id="IqsItVoHAmX1cxbS_e39-16" style="edgeStyle=orthogonalEdgeStyle;rounded=0;orthogonalLoop=1;jettySize=auto;html=1;exitX=1;exitY=0.5;exitDx=0;exitDy=0;entryX=0;entryY=0.5;entryDx=0;entryDy=0;" edge="1" parent="1" source="IqsItVoHAmX1cxbS_e39-10" target="IqsItVoHAmX1cxbS_e39-15">
          <mxGeometry relative="1" as="geometry" />
        </mxCell>
        <mxCell id="IqsItVoHAmX1cxbS_e39-25" style="edgeStyle=orthogonalEdgeStyle;rounded=0;orthogonalLoop=1;jettySize=auto;html=1;exitX=0.5;exitY=1;exitDx=0;exitDy=0;entryX=0.5;entryY=0;entryDx=0;entryDy=0;" edge="1" parent="1" source="IqsItVoHAmX1cxbS_e39-10" target="fhB60b2QltupWCeUgBXA-5">
          <mxGeometry relative="1" as="geometry">
            <Array as="points">
              <mxPoint x="369" y="669" />
              <mxPoint x="190" y="669" />
            </Array>
          </mxGeometry>
        </mxCell>
        <mxCell id="IqsItVoHAmX1cxbS_e39-10" value="¿año divisible&lt;div&gt;&amp;nbsp;por 400?&amp;nbsp;&lt;/div&gt;" style="rhombus;whiteSpace=wrap;html=1;" vertex="1" parent="1">
          <mxGeometry x="309" y="469" width="120" height="80" as="geometry" />
        </mxCell>
        <mxCell id="IqsItVoHAmX1cxbS_e39-12" value="Si" style="text;html=1;align=center;verticalAlign=middle;resizable=0;points=[];autosize=1;strokeColor=none;fillColor=none;" vertex="1" parent="1">
          <mxGeometry x="234" y="477" width="30" height="30" as="geometry" />
        </mxCell>
        <mxCell id="IqsItVoHAmX1cxbS_e39-14" value="No" style="text;html=1;align=center;verticalAlign=middle;resizable=0;points=[];autosize=1;strokeColor=none;fillColor=none;" vertex="1" parent="1">
          <mxGeometry x="149" y="537" width="40" height="30" as="geometry" />
        </mxCell>
        <mxCell id="IqsItVoHAmX1cxbS_e39-19" style="edgeStyle=orthogonalEdgeStyle;rounded=0;orthogonalLoop=1;jettySize=auto;html=1;exitX=1;exitY=0.5;exitDx=0;exitDy=0;entryX=0.5;entryY=0;entryDx=0;entryDy=0;" edge="1" parent="1" source="IqsItVoHAmX1cxbS_e39-15" target="IqsItVoHAmX1cxbS_e39-18">
          <mxGeometry relative="1" as="geometry" />
        </mxCell>
        <mxCell id="IqsItVoHAmX1cxbS_e39-24" style="edgeStyle=orthogonalEdgeStyle;rounded=0;orthogonalLoop=1;jettySize=auto;html=1;exitX=0.5;exitY=1;exitDx=0;exitDy=0;entryX=0.5;entryY=0;entryDx=0;entryDy=0;" edge="1" parent="1" source="IqsItVoHAmX1cxbS_e39-15" target="fhB60b2QltupWCeUgBXA-5">
          <mxGeometry relative="1" as="geometry">
            <Array as="points">
              <mxPoint x="529" y="669" />
              <mxPoint x="190" y="669" />
            </Array>
          </mxGeometry>
        </mxCell>
        <mxCell id="IqsItVoHAmX1cxbS_e39-15" value="¿año divisible&lt;div&gt;&amp;nbsp;por 100?&amp;nbsp;&lt;/div&gt;" style="rhombus;whiteSpace=wrap;html=1;" vertex="1" parent="1">
          <mxGeometry x="469" y="469" width="120" height="80" as="geometry" />
        </mxCell>
        <mxCell id="IqsItVoHAmX1cxbS_e39-17" value="Si" style="text;html=1;align=center;verticalAlign=middle;resizable=0;points=[];autosize=1;strokeColor=none;fillColor=none;" vertex="1" parent="1">
          <mxGeometry x="419" y="477" width="30" height="30" as="geometry" />
        </mxCell>
        <mxCell id="IqsItVoHAmX1cxbS_e39-22" style="edgeStyle=orthogonalEdgeStyle;rounded=0;orthogonalLoop=1;jettySize=auto;html=1;exitX=0.5;exitY=1;exitDx=0;exitDy=0;entryX=0.5;entryY=0;entryDx=0;entryDy=0;" edge="1" parent="1" source="IqsItVoHAmX1cxbS_e39-18" target="fhB60b2QltupWCeUgBXA-5">
          <mxGeometry relative="1" as="geometry" />
        </mxCell>
        <mxCell id="IqsItVoHAmX1cxbS_e39-18" value="bisiesto = Verdadero" style="rounded=0;whiteSpace=wrap;html=1;" vertex="1" parent="1">
          <mxGeometry x="580" y="599" width="128" height="40" as="geometry" />
        </mxCell>
        <mxCell id="IqsItVoHAmX1cxbS_e39-26" value="No" style="text;html=1;align=center;verticalAlign=middle;resizable=0;points=[];autosize=1;strokeColor=none;fillColor=none;" vertex="1" parent="1">
          <mxGeometry x="329" y="537" width="40" height="30" as="geometry" />
        </mxCell>
        <mxCell id="IqsItVoHAmX1cxbS_e39-27" value="No" style="text;html=1;align=center;verticalAlign=middle;resizable=0;points=[];autosize=1;strokeColor=none;fillColor=none;" vertex="1" parent="1">
          <mxGeometry x="479" y="537" width="40" height="30" as="geometry" />
        </mxCell>
        <mxCell id="IqsItVoHAmX1cxbS_e39-28" value="Si" style="text;html=1;align=center;verticalAlign=middle;resizable=0;points=[];autosize=1;strokeColor=none;fillColor=none;" vertex="1" parent="1">
          <mxGeometry x="580" y="477" width="30" height="30" as="geometry" />
        </mxCell>
        <mxCell id="IqsItVoHAmX1cxbS_e39-31" value="No" style="text;html=1;align=center;verticalAlign=middle;resizable=0;points=[];autosize=1;strokeColor=none;fillColor=none;" vertex="1" parent="1">
          <mxGeometry x="100" y="338" width="40" height="30" as="geometry" />
        </mxCell>
      </root>
    </mxGraphModel>
  </diagram>
</mxfile>
